<mxfile host="app.diagrams.net" agent="Mozilla/5.0 (Windows NT 10.0; Win64; x64) AppleWebKit/537.36 (KHTML, like Gecko) Chrome/140.0.0.0 Safari/537.36" version="28.2.5">
  <diagram name="Page-1" id="lmdQN05xqU7odnzXDNff">
    <mxGraphModel dx="2316" dy="803" grid="1" gridSize="10" guides="1" tooltips="1" connect="1" arrows="1" fold="1" page="1" pageScale="1" pageWidth="827" pageHeight="1169" math="0" shadow="0">
      <root>
        <mxCell id="0" />
        <mxCell id="1" parent="0" />
        <mxCell id="2JzmWQng-mD-uJ_ku5Sm-11" value="Admin" style="shape=umlActor;verticalLabelPosition=bottom;verticalAlign=top;html=1;" vertex="1" parent="1">
          <mxGeometry x="630" y="540" width="30" height="60" as="geometry" />
        </mxCell>
        <mxCell id="2JzmWQng-mD-uJ_ku5Sm-23" value="" style="endArrow=open;startArrow=none;endFill=0;startFill=0;endSize=8;html=1;verticalAlign=bottom;labelBackgroundColor=none;strokeWidth=1;rounded=0;entryX=1;entryY=1;entryDx=0;entryDy=0;" edge="1" parent="1" target="2JzmWQng-mD-uJ_ku5Sm-36">
          <mxGeometry width="160" relative="1" as="geometry">
            <mxPoint x="620" y="540" as="sourcePoint" />
            <mxPoint x="38.36000000000013" y="320.98" as="targetPoint" />
          </mxGeometry>
        </mxCell>
        <mxCell id="2JzmWQng-mD-uJ_ku5Sm-24" value="" style="endArrow=open;startArrow=none;endFill=0;startFill=0;endSize=8;html=1;verticalAlign=bottom;labelBackgroundColor=none;strokeWidth=1;rounded=0;entryX=1;entryY=1;entryDx=0;entryDy=0;" edge="1" parent="1" target="2JzmWQng-mD-uJ_ku5Sm-38">
          <mxGeometry width="160" relative="1" as="geometry">
            <mxPoint x="610" y="560" as="sourcePoint" />
            <mxPoint x="50" y="465" as="targetPoint" />
          </mxGeometry>
        </mxCell>
        <mxCell id="2JzmWQng-mD-uJ_ku5Sm-26" value="" style="endArrow=open;startArrow=none;endFill=0;startFill=0;endSize=8;html=1;verticalAlign=bottom;labelBackgroundColor=none;strokeWidth=1;rounded=0;entryX=1;entryY=0;entryDx=0;entryDy=0;" edge="1" parent="1" target="2JzmWQng-mD-uJ_ku5Sm-40">
          <mxGeometry width="160" relative="1" as="geometry">
            <mxPoint x="600" y="610" as="sourcePoint" />
            <mxPoint x="58.25" y="716.1999999999998" as="targetPoint" />
          </mxGeometry>
        </mxCell>
        <mxCell id="2JzmWQng-mD-uJ_ku5Sm-27" value="" style="endArrow=open;startArrow=none;endFill=0;startFill=0;endSize=8;html=1;verticalAlign=bottom;labelBackgroundColor=none;strokeWidth=1;rounded=0;entryX=1;entryY=0.5;entryDx=0;entryDy=0;" edge="1" parent="1" target="2JzmWQng-mD-uJ_ku5Sm-39">
          <mxGeometry width="160" relative="1" as="geometry">
            <mxPoint x="600" y="580" as="sourcePoint" />
            <mxPoint x="74.99489930374148" y="570.5077057814244" as="targetPoint" />
          </mxGeometry>
        </mxCell>
        <mxCell id="2JzmWQng-mD-uJ_ku5Sm-36" value="Quản lý người dùng" style="ellipse;whiteSpace=wrap;html=1;" vertex="1" parent="1">
          <mxGeometry x="400" y="280" width="140" height="70" as="geometry" />
        </mxCell>
        <mxCell id="2JzmWQng-mD-uJ_ku5Sm-38" value="Quản lý giao dịch" style="ellipse;whiteSpace=wrap;html=1;" vertex="1" parent="1">
          <mxGeometry x="370" y="490" width="140" height="70" as="geometry" />
        </mxCell>
        <mxCell id="2JzmWQng-mD-uJ_ku5Sm-39" value="Xem nhật ký hệ thống" style="ellipse;whiteSpace=wrap;html=1;" vertex="1" parent="1">
          <mxGeometry x="370" y="585" width="140" height="70" as="geometry" />
        </mxCell>
        <mxCell id="2JzmWQng-mD-uJ_ku5Sm-40" value="Tạo báo cáo thông kê hệ thống" style="ellipse;whiteSpace=wrap;html=1;" vertex="1" parent="1">
          <mxGeometry x="380" y="720" width="140" height="70" as="geometry" />
        </mxCell>
        <mxCell id="2JzmWQng-mD-uJ_ku5Sm-141" value="Customer" style="shape=umlActor;verticalLabelPosition=bottom;verticalAlign=top;html=1;" vertex="1" parent="1">
          <mxGeometry x="-580" y="465" width="30" height="60" as="geometry" />
        </mxCell>
        <mxCell id="2JzmWQng-mD-uJ_ku5Sm-142" value="Quản lý phiên đăng nhập&amp;nbsp;" style="ellipse;whiteSpace=wrap;html=1;" vertex="1" parent="1">
          <mxGeometry x="-385" y="310" width="160" height="60" as="geometry" />
        </mxCell>
        <mxCell id="2JzmWQng-mD-uJ_ku5Sm-143" value="Quản lý tài khoản" style="ellipse;whiteSpace=wrap;html=1;" vertex="1" parent="1">
          <mxGeometry x="-375" y="620" width="140" height="70" as="geometry" />
        </mxCell>
        <mxCell id="2JzmWQng-mD-uJ_ku5Sm-144" value="Số dư" style="ellipse;whiteSpace=wrap;html=1;" vertex="1" parent="1">
          <mxGeometry x="-160" y="570" width="120" height="50" as="geometry" />
        </mxCell>
        <mxCell id="2JzmWQng-mD-uJ_ku5Sm-145" value="Chuyển tiền" style="ellipse;whiteSpace=wrap;html=1;" vertex="1" parent="1">
          <mxGeometry x="-360" y="870" width="130" height="50" as="geometry" />
        </mxCell>
        <mxCell id="2JzmWQng-mD-uJ_ku5Sm-146" value="Chuyển tiền liên ngân hàng" style="ellipse;whiteSpace=wrap;html=1;" vertex="1" parent="1">
          <mxGeometry x="-150" y="960" width="140" height="70" as="geometry" />
        </mxCell>
        <mxCell id="2JzmWQng-mD-uJ_ku5Sm-147" value="Xem lịch sử giao dịch" style="ellipse;whiteSpace=wrap;html=1;" vertex="1" parent="1">
          <mxGeometry x="-175" y="650" width="140" height="55" as="geometry" />
        </mxCell>
        <mxCell id="2JzmWQng-mD-uJ_ku5Sm-148" value="Chuyển tiền nội bộ" style="ellipse;whiteSpace=wrap;html=1;" vertex="1" parent="1">
          <mxGeometry x="-185" y="740" width="140" height="70" as="geometry" />
        </mxCell>
        <mxCell id="2JzmWQng-mD-uJ_ku5Sm-149" value="Đăng ký" style="ellipse;whiteSpace=wrap;html=1;" vertex="1" parent="1">
          <mxGeometry x="-160" y="275" width="120" height="50" as="geometry" />
        </mxCell>
        <mxCell id="2JzmWQng-mD-uJ_ku5Sm-150" value="Đăng nhập&amp;nbsp;" style="ellipse;whiteSpace=wrap;html=1;" vertex="1" parent="1">
          <mxGeometry x="-190" y="160" width="120" height="60" as="geometry" />
        </mxCell>
        <mxCell id="2JzmWQng-mD-uJ_ku5Sm-151" value="Quên mật khẩu" style="ellipse;whiteSpace=wrap;html=1;" vertex="1" parent="1">
          <mxGeometry x="-170" y="360" width="110" height="50" as="geometry" />
        </mxCell>
        <mxCell id="2JzmWQng-mD-uJ_ku5Sm-152" value="Quản lý thông tin cá nhân" style="ellipse;whiteSpace=wrap;html=1;" vertex="1" parent="1">
          <mxGeometry x="-365" y="440" width="140" height="70" as="geometry" />
        </mxCell>
        <mxCell id="2JzmWQng-mD-uJ_ku5Sm-153" value="" style="endArrow=open;startArrow=none;endFill=0;startFill=0;endSize=8;html=1;verticalAlign=bottom;labelBackgroundColor=none;strokeWidth=1;rounded=0;entryX=0.021;entryY=0.683;entryDx=0;entryDy=0;entryPerimeter=0;" edge="1" parent="1" target="2JzmWQng-mD-uJ_ku5Sm-142">
          <mxGeometry width="160" relative="1" as="geometry">
            <mxPoint x="-530" y="480" as="sourcePoint" />
            <mxPoint x="-40" y="420" as="targetPoint" />
          </mxGeometry>
        </mxCell>
        <mxCell id="2JzmWQng-mD-uJ_ku5Sm-154" value="" style="endArrow=open;startArrow=none;endFill=0;startFill=0;endSize=8;html=1;verticalAlign=bottom;labelBackgroundColor=none;strokeWidth=1;rounded=0;entryX=0;entryY=0.5;entryDx=0;entryDy=0;" edge="1" parent="1" target="2JzmWQng-mD-uJ_ku5Sm-152">
          <mxGeometry width="160" relative="1" as="geometry">
            <mxPoint x="-530" y="490" as="sourcePoint" />
            <mxPoint x="-332" y="420" as="targetPoint" />
          </mxGeometry>
        </mxCell>
        <mxCell id="2JzmWQng-mD-uJ_ku5Sm-155" value="" style="endArrow=open;startArrow=none;endFill=0;startFill=0;endSize=8;html=1;verticalAlign=bottom;labelBackgroundColor=none;strokeWidth=1;rounded=0;entryX=0.036;entryY=0.286;entryDx=0;entryDy=0;entryPerimeter=0;" edge="1" parent="1" target="2JzmWQng-mD-uJ_ku5Sm-158">
          <mxGeometry width="160" relative="1" as="geometry">
            <mxPoint x="-530" y="520" as="sourcePoint" />
            <mxPoint x="-312" y="430" as="targetPoint" />
          </mxGeometry>
        </mxCell>
        <mxCell id="2JzmWQng-mD-uJ_ku5Sm-156" value="" style="endArrow=open;startArrow=none;endFill=0;startFill=0;endSize=8;html=1;verticalAlign=bottom;labelBackgroundColor=none;strokeWidth=1;rounded=0;entryX=0.025;entryY=0.324;entryDx=0;entryDy=0;entryPerimeter=0;" edge="1" parent="1" target="2JzmWQng-mD-uJ_ku5Sm-145">
          <mxGeometry width="160" relative="1" as="geometry">
            <mxPoint x="-530" y="510" as="sourcePoint" />
            <mxPoint x="-312" y="430" as="targetPoint" />
          </mxGeometry>
        </mxCell>
        <mxCell id="2JzmWQng-mD-uJ_ku5Sm-157" value="" style="endArrow=open;startArrow=none;endFill=0;startFill=0;endSize=8;html=1;verticalAlign=bottom;labelBackgroundColor=none;strokeWidth=1;rounded=0;entryX=0;entryY=0;entryDx=0;entryDy=0;" edge="1" parent="1" target="2JzmWQng-mD-uJ_ku5Sm-143">
          <mxGeometry width="160" relative="1" as="geometry">
            <mxPoint x="-530" y="500" as="sourcePoint" />
            <mxPoint x="-312" y="430" as="targetPoint" />
          </mxGeometry>
        </mxCell>
        <mxCell id="2JzmWQng-mD-uJ_ku5Sm-158" value="Quản lý thông tin người nhận tiền" style="ellipse;whiteSpace=wrap;html=1;" vertex="1" parent="1">
          <mxGeometry x="-414" y="1010" width="140" height="70" as="geometry" />
        </mxCell>
        <mxCell id="2JzmWQng-mD-uJ_ku5Sm-159" value="" style="endArrow=open;startArrow=none;endFill=0;startFill=0;endSize=8;html=1;verticalAlign=bottom;labelBackgroundColor=none;strokeWidth=1;rounded=0;exitX=0.77;exitY=0.043;exitDx=0;exitDy=0;exitPerimeter=0;" edge="1" parent="1" source="2JzmWQng-mD-uJ_ku5Sm-142" target="2JzmWQng-mD-uJ_ku5Sm-150">
          <mxGeometry width="160" relative="1" as="geometry">
            <mxPoint x="-430" y="509" as="sourcePoint" />
            <mxPoint x="-282" y="380" as="targetPoint" />
          </mxGeometry>
        </mxCell>
        <mxCell id="2JzmWQng-mD-uJ_ku5Sm-160" value="" style="endArrow=open;startArrow=none;endFill=0;startFill=0;endSize=8;html=1;verticalAlign=bottom;labelBackgroundColor=none;strokeWidth=1;rounded=0;entryX=0;entryY=0.5;entryDx=0;entryDy=0;exitX=1;exitY=1;exitDx=0;exitDy=0;" edge="1" parent="1" source="2JzmWQng-mD-uJ_ku5Sm-142" target="2JzmWQng-mD-uJ_ku5Sm-151">
          <mxGeometry width="160" relative="1" as="geometry">
            <mxPoint x="-400" y="519" as="sourcePoint" />
            <mxPoint x="-252" y="390" as="targetPoint" />
          </mxGeometry>
        </mxCell>
        <mxCell id="2JzmWQng-mD-uJ_ku5Sm-161" value="" style="endArrow=open;startArrow=none;endFill=0;startFill=0;endSize=8;html=1;verticalAlign=bottom;labelBackgroundColor=none;strokeWidth=1;rounded=0;entryX=0;entryY=0.5;entryDx=0;entryDy=0;exitX=1;exitY=0.5;exitDx=0;exitDy=0;" edge="1" parent="1" source="2JzmWQng-mD-uJ_ku5Sm-142" target="2JzmWQng-mD-uJ_ku5Sm-149">
          <mxGeometry width="160" relative="1" as="geometry">
            <mxPoint x="-400" y="519" as="sourcePoint" />
            <mxPoint x="-252" y="390" as="targetPoint" />
          </mxGeometry>
        </mxCell>
        <mxCell id="2JzmWQng-mD-uJ_ku5Sm-162" value="" style="endArrow=open;startArrow=none;endFill=0;startFill=0;endSize=8;html=1;verticalAlign=bottom;labelBackgroundColor=none;strokeWidth=1;rounded=0;entryX=0;entryY=0.5;entryDx=0;entryDy=0;" edge="1" parent="1" source="2JzmWQng-mD-uJ_ku5Sm-143" target="2JzmWQng-mD-uJ_ku5Sm-144">
          <mxGeometry width="160" relative="1" as="geometry">
            <mxPoint x="-210" y="380" as="sourcePoint" />
            <mxPoint x="-120" y="489" as="targetPoint" />
          </mxGeometry>
        </mxCell>
        <mxCell id="2JzmWQng-mD-uJ_ku5Sm-163" value="" style="endArrow=open;startArrow=none;endFill=0;startFill=0;endSize=8;html=1;verticalAlign=bottom;labelBackgroundColor=none;strokeWidth=1;rounded=0;entryX=0.01;entryY=0.371;entryDx=0;entryDy=0;exitX=0.977;exitY=0.369;exitDx=0;exitDy=0;exitPerimeter=0;entryPerimeter=0;" edge="1" parent="1" source="2JzmWQng-mD-uJ_ku5Sm-143" target="2JzmWQng-mD-uJ_ku5Sm-147">
          <mxGeometry width="160" relative="1" as="geometry">
            <mxPoint x="60" y="490" as="sourcePoint" />
            <mxPoint x="148" y="534" as="targetPoint" />
          </mxGeometry>
        </mxCell>
        <mxCell id="2JzmWQng-mD-uJ_ku5Sm-164" value="" style="endArrow=open;startArrow=none;endFill=0;startFill=0;endSize=8;html=1;verticalAlign=bottom;labelBackgroundColor=none;strokeWidth=1;rounded=0;entryX=0;entryY=0.5;entryDx=0;entryDy=0;exitX=0.948;exitY=0.356;exitDx=0;exitDy=0;exitPerimeter=0;" edge="1" parent="1" source="2JzmWQng-mD-uJ_ku5Sm-145" target="2JzmWQng-mD-uJ_ku5Sm-148">
          <mxGeometry width="160" relative="1" as="geometry">
            <mxPoint x="-510" y="700" as="sourcePoint" />
            <mxPoint x="-422" y="744" as="targetPoint" />
          </mxGeometry>
        </mxCell>
        <mxCell id="2JzmWQng-mD-uJ_ku5Sm-165" value="" style="endArrow=open;startArrow=none;endFill=0;startFill=0;endSize=8;html=1;verticalAlign=bottom;labelBackgroundColor=none;strokeWidth=1;rounded=0;entryX=0.06;entryY=0.3;entryDx=0;entryDy=0;exitX=0.942;exitY=0.708;exitDx=0;exitDy=0;exitPerimeter=0;entryPerimeter=0;" edge="1" parent="1" source="2JzmWQng-mD-uJ_ku5Sm-145" target="2JzmWQng-mD-uJ_ku5Sm-146">
          <mxGeometry width="160" relative="1" as="geometry">
            <mxPoint x="110" y="640" as="sourcePoint" />
            <mxPoint x="198" y="684" as="targetPoint" />
          </mxGeometry>
        </mxCell>
        <mxCell id="2JzmWQng-mD-uJ_ku5Sm-166" value="Xác thực thông tin" style="ellipse;whiteSpace=wrap;html=1;" vertex="1" parent="1">
          <mxGeometry x="30" y="120" width="140" height="70" as="geometry" />
        </mxCell>
        <mxCell id="2JzmWQng-mD-uJ_ku5Sm-167" value="OTP,Mail" style="ellipse;whiteSpace=wrap;html=1;" vertex="1" parent="1">
          <mxGeometry x="40" y="340" width="140" height="70" as="geometry" />
        </mxCell>
        <mxCell id="2JzmWQng-mD-uJ_ku5Sm-171" value="&amp;lt;&amp;lt;include&amp;gt;&amp;gt;" style="html=1;verticalAlign=bottom;labelBackgroundColor=none;endArrow=open;endFill=0;dashed=1;rounded=0;exitX=1;exitY=0.5;exitDx=0;exitDy=0;entryX=0.064;entryY=0.774;entryDx=0;entryDy=0;entryPerimeter=0;" edge="1" parent="1" source="2JzmWQng-mD-uJ_ku5Sm-150" target="2JzmWQng-mD-uJ_ku5Sm-166">
          <mxGeometry width="160" relative="1" as="geometry">
            <mxPoint y="300" as="sourcePoint" />
            <mxPoint x="160" y="300" as="targetPoint" />
          </mxGeometry>
        </mxCell>
        <mxCell id="2JzmWQng-mD-uJ_ku5Sm-172" value="&amp;lt;&amp;lt;include&amp;gt;&amp;gt;" style="html=1;verticalAlign=bottom;labelBackgroundColor=none;endArrow=open;endFill=0;dashed=1;rounded=0;exitX=0.93;exitY=0.21;exitDx=0;exitDy=0;entryX=0.036;entryY=0.636;entryDx=0;entryDy=0;entryPerimeter=0;exitPerimeter=0;" edge="1" parent="1" source="2JzmWQng-mD-uJ_ku5Sm-151" target="2JzmWQng-mD-uJ_ku5Sm-167">
          <mxGeometry width="160" relative="1" as="geometry">
            <mxPoint x="-50" y="196" as="sourcePoint" />
            <mxPoint x="59" y="180" as="targetPoint" />
          </mxGeometry>
        </mxCell>
        <mxCell id="2JzmWQng-mD-uJ_ku5Sm-173" value="Thay đổi SDT,Mail" style="ellipse;whiteSpace=wrap;html=1;" vertex="1" parent="1">
          <mxGeometry x="-120" y="440" width="110" height="60" as="geometry" />
        </mxCell>
        <mxCell id="2JzmWQng-mD-uJ_ku5Sm-174" value="" style="endArrow=open;startArrow=none;endFill=0;startFill=0;endSize=8;html=1;verticalAlign=bottom;labelBackgroundColor=none;strokeWidth=1;rounded=0;entryX=0;entryY=0.5;entryDx=0;entryDy=0;exitX=1;exitY=0.5;exitDx=0;exitDy=0;" edge="1" parent="1" source="2JzmWQng-mD-uJ_ku5Sm-152" target="2JzmWQng-mD-uJ_ku5Sm-173">
          <mxGeometry width="160" relative="1" as="geometry">
            <mxPoint x="-200" y="390" as="sourcePoint" />
            <mxPoint x="-112" y="434" as="targetPoint" />
          </mxGeometry>
        </mxCell>
        <mxCell id="2JzmWQng-mD-uJ_ku5Sm-176" value="&amp;lt;&amp;lt;include&amp;gt;&amp;gt;" style="html=1;verticalAlign=bottom;labelBackgroundColor=none;endArrow=open;endFill=0;dashed=1;rounded=0;exitX=0.907;exitY=0.16;exitDx=0;exitDy=0;entryX=0;entryY=1;entryDx=0;entryDy=0;exitPerimeter=0;" edge="1" parent="1" source="2JzmWQng-mD-uJ_ku5Sm-173" target="2JzmWQng-mD-uJ_ku5Sm-167">
          <mxGeometry width="160" relative="1" as="geometry">
            <mxPoint x="-30" y="385" as="sourcePoint" />
            <mxPoint x="73" y="380" as="targetPoint" />
          </mxGeometry>
        </mxCell>
        <mxCell id="2JzmWQng-mD-uJ_ku5Sm-178" value="Lưu người hưởng thụ" style="ellipse;whiteSpace=wrap;html=1;" vertex="1" parent="1">
          <mxGeometry x="-170" y="840" width="140" height="70" as="geometry" />
        </mxCell>
        <mxCell id="2JzmWQng-mD-uJ_ku5Sm-179" value="&amp;lt;&amp;lt;extend&amp;gt;&amp;gt;" style="html=1;verticalAlign=bottom;labelBackgroundColor=none;endArrow=open;endFill=0;dashed=1;rounded=0;entryX=0.5;entryY=0;entryDx=0;entryDy=0;" edge="1" parent="1" source="2JzmWQng-mD-uJ_ku5Sm-148" target="2JzmWQng-mD-uJ_ku5Sm-178">
          <mxGeometry width="160" relative="1" as="geometry">
            <mxPoint x="-160" y="800" as="sourcePoint" />
            <mxPoint y="800" as="targetPoint" />
          </mxGeometry>
        </mxCell>
        <mxCell id="2JzmWQng-mD-uJ_ku5Sm-180" value="&amp;lt;&amp;lt;extend&amp;gt;&amp;gt;" style="html=1;verticalAlign=bottom;labelBackgroundColor=none;endArrow=open;endFill=0;dashed=1;rounded=0;entryX=0.433;entryY=0.999;entryDx=0;entryDy=0;entryPerimeter=0;" edge="1" parent="1" source="2JzmWQng-mD-uJ_ku5Sm-146" target="2JzmWQng-mD-uJ_ku5Sm-178">
          <mxGeometry width="160" relative="1" as="geometry">
            <mxPoint x="-10" y="800" as="sourcePoint" />
            <mxPoint x="83" y="824" as="targetPoint" />
          </mxGeometry>
        </mxCell>
        <mxCell id="2JzmWQng-mD-uJ_ku5Sm-181" value="Khóa tài khoản" style="ellipse;whiteSpace=wrap;html=1;" vertex="1" parent="1">
          <mxGeometry x="240" y="200" width="140" height="70" as="geometry" />
        </mxCell>
        <mxCell id="2JzmWQng-mD-uJ_ku5Sm-182" value="Mở tài khoản" style="ellipse;whiteSpace=wrap;html=1;" vertex="1" parent="1">
          <mxGeometry x="220" y="290" width="140" height="70" as="geometry" />
        </mxCell>
        <mxCell id="2JzmWQng-mD-uJ_ku5Sm-183" value="Khôi phục tài khoản" style="ellipse;whiteSpace=wrap;html=1;" vertex="1" parent="1">
          <mxGeometry x="230" y="390" width="140" height="70" as="geometry" />
        </mxCell>
        <mxCell id="2JzmWQng-mD-uJ_ku5Sm-184" value="" style="endArrow=open;startArrow=none;endFill=0;startFill=0;endSize=8;html=1;verticalAlign=bottom;labelBackgroundColor=none;strokeWidth=1;rounded=0;entryX=0.959;entryY=0.704;entryDx=0;entryDy=0;entryPerimeter=0;exitX=0;exitY=0;exitDx=0;exitDy=0;" edge="1" parent="1" source="2JzmWQng-mD-uJ_ku5Sm-36" target="2JzmWQng-mD-uJ_ku5Sm-181">
          <mxGeometry width="160" relative="1" as="geometry">
            <mxPoint x="420" y="300" as="sourcePoint" />
            <mxPoint x="560" y="420" as="targetPoint" />
          </mxGeometry>
        </mxCell>
        <mxCell id="2JzmWQng-mD-uJ_ku5Sm-185" value="" style="endArrow=open;startArrow=none;endFill=0;startFill=0;endSize=8;html=1;verticalAlign=bottom;labelBackgroundColor=none;strokeWidth=1;rounded=0;entryX=0.947;entryY=0.3;entryDx=0;entryDy=0;entryPerimeter=0;exitX=0;exitY=0.5;exitDx=0;exitDy=0;" edge="1" parent="1" source="2JzmWQng-mD-uJ_ku5Sm-36" target="2JzmWQng-mD-uJ_ku5Sm-182">
          <mxGeometry width="160" relative="1" as="geometry">
            <mxPoint x="436" y="312" as="sourcePoint" />
            <mxPoint x="390" y="270" as="targetPoint" />
          </mxGeometry>
        </mxCell>
        <mxCell id="2JzmWQng-mD-uJ_ku5Sm-186" value="" style="endArrow=open;startArrow=none;endFill=0;startFill=0;endSize=8;html=1;verticalAlign=bottom;labelBackgroundColor=none;strokeWidth=1;rounded=0;entryX=0.941;entryY=0.357;entryDx=0;entryDy=0;entryPerimeter=0;exitX=0;exitY=1;exitDx=0;exitDy=0;" edge="1" parent="1" source="2JzmWQng-mD-uJ_ku5Sm-36" target="2JzmWQng-mD-uJ_ku5Sm-183">
          <mxGeometry width="160" relative="1" as="geometry">
            <mxPoint x="426" y="382" as="sourcePoint" />
            <mxPoint x="380" y="340" as="targetPoint" />
          </mxGeometry>
        </mxCell>
        <mxCell id="2JzmWQng-mD-uJ_ku5Sm-187" value="Xác thực số tiền" style="ellipse;whiteSpace=wrap;html=1;" vertex="1" parent="1">
          <mxGeometry x="100" y="700" width="140" height="70" as="geometry" />
        </mxCell>
        <mxCell id="2JzmWQng-mD-uJ_ku5Sm-188" value="" style="endArrow=open;startArrow=none;endFill=0;startFill=0;endSize=8;html=1;verticalAlign=bottom;labelBackgroundColor=none;strokeWidth=1;rounded=0;entryX=1;entryY=0;entryDx=0;entryDy=0;exitX=0.058;exitY=0.656;exitDx=0;exitDy=0;exitPerimeter=0;" edge="1" parent="1" source="2JzmWQng-mD-uJ_ku5Sm-38" target="2JzmWQng-mD-uJ_ku5Sm-187">
          <mxGeometry width="160" relative="1" as="geometry">
            <mxPoint x="448" y="380" as="sourcePoint" />
            <mxPoint x="390" y="455" as="targetPoint" />
          </mxGeometry>
        </mxCell>
        <mxCell id="2JzmWQng-mD-uJ_ku5Sm-189" value="&amp;lt;&amp;lt;extend&amp;gt;&amp;gt;" style="html=1;verticalAlign=bottom;labelBackgroundColor=none;endArrow=open;endFill=0;dashed=1;rounded=0;entryX=0.032;entryY=0.663;entryDx=0;entryDy=0;entryPerimeter=0;" edge="1" parent="1" source="2JzmWQng-mD-uJ_ku5Sm-148" target="2JzmWQng-mD-uJ_ku5Sm-187">
          <mxGeometry width="160" relative="1" as="geometry">
            <mxPoint x="-70" y="630" as="sourcePoint" />
            <mxPoint x="90" y="630" as="targetPoint" />
          </mxGeometry>
        </mxCell>
        <mxCell id="2JzmWQng-mD-uJ_ku5Sm-190" value="&amp;lt;&amp;lt;extend&amp;gt;&amp;gt;" style="html=1;verticalAlign=bottom;labelBackgroundColor=none;endArrow=open;endFill=0;dashed=1;rounded=0;entryX=0;entryY=1;entryDx=0;entryDy=0;exitX=0.915;exitY=0.154;exitDx=0;exitDy=0;exitPerimeter=0;" edge="1" parent="1" source="2JzmWQng-mD-uJ_ku5Sm-146" target="2JzmWQng-mD-uJ_ku5Sm-187">
          <mxGeometry width="160" relative="1" as="geometry">
            <mxPoint x="-20" y="814" as="sourcePoint" />
            <mxPoint x="160" y="720" as="targetPoint" />
          </mxGeometry>
        </mxCell>
      </root>
    </mxGraphModel>
  </diagram>
</mxfile>
